Download ... Seed ... Enjoy


w w w . m o v i e g a l a x y . i n






Format : AVI
Format/Info : Audio Video Interleave
File size : 887 MiB
Duration : 2h 22mn
Overall bit rate : 868 Kbps
Writing application : Lavf52.39.1

Video
ID : 0
Format : xvid
Codec ID : xvid
Duration : 2h 22mn
Bit rate : 790 Kbps
Width : 640 pixels
Height : 272 pixels
Display aspect ratio : 2.35:1
Frame rate : 29.970 fps
Bits/(Pixel*Frame) : 0.151
Stream size : 808 MiB (91%)

Audio
ID : 1
Format : MPEG Audio
Format version : Version 1
Format profile : Layer 3
Mode : Joint stereo
Mode extension : MS Stereo
Codec ID : 55
Codec ID/Hint : MP3
Duration : 2h 22mn
Bit rate mode : Constant
Bit rate : 64.0 Kbps
Channel(s) : 2 channels
Sampling rate : 44.1 KHz
Compression mode : Lossy
Stream size : 65.4 MiB (7%)
Alignment : Aligned on interleaves
Interleave, duration : 26 ms (0.78 video frame)
Writing library : LAMEUUULAME3.96.1

 
http://i.imgur.com/LDxy9.jpg